<svg xmlns="http://www.w3.org/2000/svg" viewBox="0 0 131.37 19.7"><defs><style>.cls-1{fill:#fff}.cls-2{fill:#27ae60}</style></defs><g id="Themebiz.net"><path d="M19.68,6.37h-5.3V3.7H27.82V6.37H22.57V22.86H19.68Z" class="cls-1" transform="translate(-14.38 -3.48)"/><path d="M30.49,22.83l0-19.35,2.8,0v7.9A3.28,3.28,0,0,1,34.8,10a5.22,5.22,0,0,1,2.5-.64,5.58,5.58,0,0,1,2.57.55,3.46,3.46,0,0,1,1.55,1.44,6.76,6.76,0,0,1,.69,1.75,8.07,8.07,0,0,1,.2,1.8v7.9H39.48V15.41q0-3.66-2.79-3.66a3.28,3.28,0,0,0-2.4,1,3.57,3.57,0,0,0-1,2.64v7.42Z" class="cls-1" transform="translate(-14.38 -3.48)"/><path d="M46.05,11.16a6.47,6.47,0,0,1,4.69-1.82,6.34,6.34,0,0,1,4.73,1.95,6.74,6.74,0,0,1,1.6,5.52l-10.17.11a3.55,3.55,0,0,0,.18,1,6.3,6.3,0,0,0,.56,1.24,3,3,0,0,0,1.14,1.11,3.5,3.5,0,0,0,1.75.49,3.87,3.87,0,0,0,3.92-2.12l2.51.71A6,6,0,0,1,54.77,22a6.68,6.68,0,0,1-4,1.15,6.2,6.2,0,0,1-4.85-2,7.08,7.08,0,0,1-1.77-4.93A6.69,6.69,0,0,1,46.05,11.16Zm8.16,3.51a2.85,2.85,0,0,0-1.09-2.11,3.59,3.59,0,0,0-2.91-.81,3.29,3.29,0,0,0-2.11,1,3.25,3.25,0,0,0-1,2Z" class="cls-1" transform="translate(-14.38 -3.48)"/><path d="M59.22,9.76h2.59v1.86a5.49,5.49,0,0,1,.59-.7A6.54,6.54,0,0,1,63.63,10a4.3,4.3,0,0,1,1.76-.63,4.43,4.43,0,0,1,3,.51A4.14,4.14,0,0,1,70,11.73a4.3,4.3,0,0,1,1.48-1.53A5.87,5.87,0,0,1,74,9.37a5.09,5.09,0,0,1,2.44.24,3.66,3.66,0,0,1,1.65,1.16A5.59,5.59,0,0,1,79,12.41a5.77,5.77,0,0,1,.29,1.78V22.8H76.47V15.25c0-2.28-.73-3.42-2.17-3.42A3.25,3.25,0,0,0,71.58,13a4.68,4.68,0,0,0-.89,3v6.89H67.91V16a7.75,7.75,0,0,0-.49-3,1.87,1.87,0,0,0-1.9-1.12Q62,11.86,62,16.55v6.28H59.22Z" class="cls-1" transform="translate(-14.38 -3.48)"/><path d="M83.25,11.16a6.51,6.51,0,0,1,4.69-1.82,6.32,6.32,0,0,1,4.73,1.95,6.75,6.75,0,0,1,1.61,5.52l-10.18.11a3.28,3.28,0,0,0,.19,1,6.22,6.22,0,0,0,.55,1.24A3.2,3.2,0,0,0,86,20.3a3.53,3.53,0,0,0,1.75.49,3.86,3.86,0,0,0,3.92-2.12l2.52.71A6,6,0,0,1,92,22a6.65,6.65,0,0,1-4,1.15,6.2,6.2,0,0,1-4.85-2,7,7,0,0,1-1.78-4.93A6.73,6.73,0,0,1,83.25,11.16Zm8.16,3.51a2.88,2.88,0,0,0-1.08-2.11,3.62,3.62,0,0,0-2.92-.81,3.26,3.26,0,0,0-2.1,1,3.21,3.21,0,0,0-1,2Z" class="cls-1" transform="translate(-14.38 -3.48)"/><path d="M99.23,11.22a4.49,4.49,0,0,1,2-1.48,6.2,6.2,0,0,1,2.6-.4A6.1,6.1,0,0,1,107.56,11a6.33,6.33,0,0,1,2,4.19,9,9,0,0,1-.16,3.11,6.29,6.29,0,0,1-1,2.32,6.46,6.46,0,0,1-1.58,1.51A5.87,5.87,0,0,1,105,23a4.77,4.77,0,0,1-1.68.2,6.33,6.33,0,0,1-2.44-.58,4.4,4.4,0,0,1-1.72-1.32L99,22.8l-2.6,0,0-19.35,2.76,0Zm-.13,5a4.86,4.86,0,0,0,1,3.14,3.57,3.57,0,0,0,2.78,1.34,3.48,3.48,0,0,0,2.83-1.24,4.65,4.65,0,0,0,1.12-3.19A4.85,4.85,0,0,0,105.75,13,3.23,3.23,0,0,0,103,11.81a4,4,0,0,0-2.77,1.24A4.37,4.37,0,0,0,99.1,16.26Z" class="cls-1" transform="translate(-14.38 -3.48)"/><path d="M115,6.66a1.79,1.79,0,0,1-1.33.53,1.89,1.89,0,0,1-1.36-.53,1.74,1.74,0,0,1-.55-1.32A1.77,1.77,0,0,1,112.29,4a1.94,1.94,0,0,1,1.36-.53A1.83,1.83,0,0,1,115,4a1.77,1.77,0,0,1,.55,1.33A1.74,1.74,0,0,1,115,6.66Zm0,3V22.88h-2.78V9.63Z" class="cls-1" transform="translate(-14.38 -3.48)"/><path d="M117.65,22.86V20.58l7.23-8.43h-7V9.71h10.34V12l-7.18,8.35h7.23v2.47Z" class="cls-1" transform="translate(-14.38 -3.48)"/><path d="M130.5,22.8a.75.75,0,0,1-.53-.22.75.75,0,0,1,0-1,.74.74,0,0,1,.53-.21.73.73,0,0,1,.51,1.25A.7.7,0,0,1,130.5,22.8Z" class="cls-2" transform="translate(-14.38 -3.48)"/><path d="M132,17.82h1v.7a1.8,1.8,0,0,1,1.27-.84,2,2,0,0,1,1.22.18,1.58,1.58,0,0,1,.7.7,4,4,0,0,1,.22,1.59v2.6h-1V20.09a3.3,3.3,0,0,0,0-.61,1.43,1.43,0,0,0-.15-.47.67.67,0,0,0-.4-.33,2,2,0,0,0-.72-.07,1,1,0,0,0-.71.46,2,2,0,0,0-.32,1.21v2.47h-1Z" class="cls-2" transform="translate(-14.38 -3.48)"/><path d="M137.93,18.34a2.42,2.42,0,0,1,1.77-.68,2.37,2.37,0,0,1,1.78.73,2.56,2.56,0,0,1,.61,2.09l-3.84,0a1.24,1.24,0,0,0,.07.39,3,3,0,0,0,.21.46,1.16,1.16,0,0,0,.43.42,1.31,1.31,0,0,0,.66.19,1.47,1.47,0,0,0,1.48-.8l1,.27a2.27,2.27,0,0,1-.83,1,2.53,2.53,0,0,1-1.5.44,2.37,2.37,0,0,1-1.83-.74,2.67,2.67,0,0,1-.67-1.86A2.57,2.57,0,0,1,137.93,18.34ZM141,19.67a1.1,1.1,0,0,0-.41-.8,1.33,1.33,0,0,0-1.1-.3,1.27,1.27,0,0,0-1.17,1.11Z" class="cls-2" transform="translate(-14.38 -3.48)"/><path d="M145.75,22.67a2.29,2.29,0,0,1-1.32.12,1.24,1.24,0,0,1-.83-.58,2,2,0,0,1-.24-1V18.73h-.86v-.92h.62c.13,0,.22,0,.25-.06a.37.37,0,0,0,0-.22v-1.2h1v1.48h1.21v.92h-1.22v1.69a2.56,2.56,0,0,0,.16,1.24.66.66,0,0,0,.44.21.62.62,0,0,0,.43-.07Z" class="cls-2" transform="translate(-14.38 -3.48)"/></g></svg>