<svg version="1.1" id="Layer_1" xmlns="http://www.w3.org/2000/svg" xmlns:xlink="http://www.w3.org/1999/xlink" x="0px" y="0px"
	 viewBox="0 0 160 30" style="enable-background:new 0 0 160 30;" xml:space="preserve">
<style type="text/css">
	.st0{fill:#FFFFFF;}
	.st1{fill:#24AE5F;}
</style>
<g>
	<path class="st0" d="M7.04,7.07H1.16V4.1h14.9v2.97h-5.82v18.28h-3.2V7.07z"/>
	<path class="st0" d="M19.02,25.31L18.99,3.86l3.11,0.03v8.76c0.25-0.55,0.82-1.06,1.69-1.53s1.8-0.71,2.78-0.71
		c1.12,0,2.07,0.2,2.85,0.6c0.78,0.4,1.36,0.94,1.72,1.6c0.36,0.67,0.62,1.31,0.76,1.94c0.15,0.63,0.22,1.29,0.22,2v8.75h-3.14
		v-8.23c0-2.7-1.03-4.05-3.08-4.05c-1.02,0-1.91,0.38-2.66,1.13c-0.75,0.75-1.13,1.73-1.13,2.92v8.23H19.02z"/>
	<path class="st0" d="M36.27,12.37c1.39-1.34,3.12-2.01,5.2-2.01c2.1,0,3.84,0.72,5.24,2.16c1.4,1.44,1.99,3.48,1.78,6.13
		l-11.28,0.12c0,0.33,0.07,0.72,0.21,1.15c0.14,0.43,0.34,0.89,0.62,1.37c0.27,0.48,0.69,0.89,1.26,1.23
		c0.57,0.34,1.21,0.52,1.94,0.54c2.02,0.1,3.47-0.69,4.35-2.35l2.79,0.79c-0.43,1.06-1.24,2.01-2.44,2.87
		c-1.19,0.85-2.66,1.28-4.41,1.28c-2.27,0-4.06-0.72-5.38-2.17c-1.31-1.45-1.97-3.27-1.97-5.46C34.18,15.59,34.88,13.71,36.27,12.37
		z M45.32,16.26c0-0.82-0.4-1.6-1.2-2.34c-0.8-0.73-1.88-1.03-3.23-0.9c-0.92,0.08-1.7,0.43-2.34,1.06c-0.64,0.63-1,1.36-1.1,2.2
		L45.32,16.26z"/>
	<path class="st0" d="M50.87,10.83h2.88v2.06c0.16-0.23,0.37-0.49,0.65-0.78c0.27-0.28,0.73-0.62,1.37-1.01
		c0.64-0.39,1.29-0.63,1.95-0.71c1.39-0.18,2.51,0.01,3.36,0.57s1.44,1.24,1.78,2.04c0.35-0.65,0.9-1.21,1.65-1.69
		c0.74-0.48,1.66-0.79,2.73-0.93c1.02-0.12,1.92-0.03,2.7,0.26c0.78,0.29,1.4,0.73,1.84,1.29c0.44,0.57,0.77,1.18,0.98,1.82
		c0.22,0.65,0.32,1.3,0.32,1.97v9.55H70v-8.37c0-2.53-0.8-3.79-2.41-3.79c-1.35,0-2.36,0.42-3.01,1.25
		c-0.66,0.83-0.98,1.93-0.98,3.31v7.64h-3.08v-7.55c0-1.41-0.18-2.53-0.54-3.36c-0.36-0.83-1.06-1.25-2.1-1.25
		c-2.6,0-3.91,1.73-3.91,5.2v6.96h-3.08V10.83z"/>
	<path class="st0" d="M77.52,12.37c1.39-1.34,3.12-2.01,5.2-2.01c2.1,0,3.84,0.72,5.24,2.16c1.4,1.44,1.99,3.48,1.78,6.13
		l-11.28,0.12c0,0.33,0.07,0.72,0.21,1.15c0.14,0.43,0.34,0.89,0.62,1.37c0.27,0.48,0.69,0.89,1.26,1.23
		c0.57,0.34,1.21,0.52,1.94,0.54c2.02,0.1,3.47-0.69,4.35-2.35l2.79,0.79c-0.43,1.06-1.24,2.01-2.44,2.87
		c-1.2,0.85-2.66,1.28-4.41,1.28c-2.27,0-4.06-0.72-5.38-2.17c-1.31-1.45-1.97-3.27-1.97-5.46C75.44,15.59,76.13,13.71,77.52,12.37z
		 M86.57,16.26c0-0.82-0.4-1.6-1.2-2.34c-0.8-0.73-1.88-1.03-3.23-0.9c-0.92,0.08-1.7,0.43-2.34,1.06c-0.64,0.63-1,1.36-1.1,2.2
		L86.57,16.26z"/>
	<path class="st0" d="M95.24,12.44c0.57-0.74,1.31-1.29,2.23-1.65s1.88-0.5,2.88-0.44c1.51,0.1,2.88,0.71,4.13,1.82
		c1.24,1.12,1.97,2.66,2.19,4.64c0.14,1.25,0.08,2.41-0.18,3.45c-0.25,1.05-0.63,1.9-1.13,2.57c-0.5,0.67-1.08,1.22-1.75,1.67
		c-0.67,0.45-1.33,0.77-1.98,0.96c-0.66,0.19-1.28,0.26-1.87,0.22c-0.96-0.04-1.86-0.25-2.7-0.65c-0.84-0.39-1.48-0.88-1.91-1.47
		L95,25.28l-2.88,0.03l0.06-21.45l3.06,0.03V12.44z M95.09,18.03c0,1.37,0.38,2.53,1.15,3.48c0.76,0.95,1.79,1.45,3.08,1.48
		c1.25,0.04,2.3-0.42,3.13-1.37c0.83-0.95,1.25-2.13,1.25-3.54c0-1.51-0.41-2.73-1.23-3.67c-0.82-0.94-1.83-1.38-3.03-1.32
		c-1.2,0.06-2.22,0.52-3.07,1.38C95.52,15.33,95.09,16.52,95.09,18.03z"/>
	<path class="st0" d="M112.71,7.39c-0.4,0.39-0.9,0.59-1.48,0.59c-0.59,0-1.09-0.2-1.5-0.59c-0.41-0.39-0.62-0.88-0.62-1.47
		c0-0.59,0.21-1.08,0.62-1.47c0.41-0.39,0.91-0.59,1.5-0.59c0.59,0,1.08,0.2,1.48,0.59c0.4,0.39,0.6,0.88,0.6,1.47
		C113.31,6.51,113.11,7,112.71,7.39z M112.75,10.68v14.69h-3.08V10.68H112.75z"/>
	<path class="st0" d="M115.66,25.34v-2.53l8.02-9.34h-7.73v-2.7h11.46v2.59l-7.96,9.25h8.02v2.73H115.66z"/>
	<path class="st1" d="M129.78,25.26c-0.21,0-0.38-0.07-0.52-0.21c-0.14-0.14-0.21-0.32-0.21-0.52c0-0.2,0.07-0.37,0.21-0.52
		c0.14-0.14,0.32-0.21,0.52-0.21c0.2,0,0.37,0.07,0.52,0.21c0.14,0.14,0.21,0.32,0.21,0.52c0,0.21-0.07,0.38-0.21,0.52
		C130.16,25.19,129.98,25.26,129.78,25.26z"/>
	<path class="st1" d="M131.31,20.29h0.98v0.7c0.35-0.5,0.77-0.78,1.27-0.84c0.49-0.06,0.89,0,1.22,0.18c0.33,0.18,0.56,0.41,0.7,0.7
		c0.15,0.31,0.22,0.84,0.22,1.59v2.6h-1.05v-2.66c0-0.25-0.01-0.46-0.04-0.61s-0.08-0.31-0.16-0.46c-0.08-0.16-0.21-0.27-0.4-0.33
		c-0.19-0.06-0.43-0.09-0.72-0.08c-0.26,0.02-0.5,0.17-0.71,0.46c-0.21,0.29-0.32,0.69-0.32,1.21v2.47h-1V20.29z"/>
	<path class="st1" d="M137.21,20.81c0.47-0.46,1.06-0.68,1.77-0.68c0.71,0,1.31,0.25,1.79,0.74c0.48,0.49,0.68,1.18,0.6,2.08
		l-3.84,0.04c0,0.11,0.02,0.24,0.07,0.39s0.12,0.3,0.21,0.46c0.09,0.16,0.24,0.3,0.43,0.42c0.19,0.12,0.41,0.18,0.66,0.19
		c0.69,0.03,1.18-0.23,1.48-0.8l0.95,0.27c-0.15,0.36-0.42,0.68-0.83,0.97c-0.41,0.29-0.91,0.44-1.5,0.44
		c-0.77,0-1.38-0.25-1.83-0.74c-0.45-0.49-0.67-1.11-0.67-1.86C136.5,21.91,136.74,21.27,137.21,20.81z M140.29,22.13
		c0-0.28-0.14-0.54-0.41-0.79s-0.64-0.35-1.1-0.3c-0.31,0.03-0.58,0.15-0.79,0.36c-0.22,0.21-0.34,0.46-0.38,0.75L140.29,22.13z"/>
	<path class="st1" d="M145.03,25.13c-0.43,0.17-0.87,0.21-1.32,0.12c-0.39-0.09-0.67-0.29-0.83-0.58s-0.24-0.61-0.24-0.96V21.2
		h-0.86v-0.92h0.62c0.13,0,0.22-0.02,0.25-0.06c0.03-0.04,0.05-0.11,0.05-0.22v-1.2h0.97v1.48h1.21v0.92h-1.22v1.69
		c0,0.71,0.05,1.12,0.16,1.24c0.11,0.12,0.25,0.19,0.44,0.21s0.33,0,0.43-0.08L145.03,25.13z"/>
</g>
<g>
</g>
<g>
</g>
<g>
</g>
<g>
</g>
<g>
</g>
<g>
</g>
</svg>
