<svg xmlns="http://www.w3.org/2000/svg" id="Layer_1" data-name="Layer 1" viewBox="0 0 136 40"><defs><style>.cls-1{fill:#7577a9}</style></defs><path d="M0,25.53v-11H2.21l4.4,8v-8h2v11H6.4L2,17.56v8Z" class="cls-1"/><path d="M20.8,17.8H18.46a3.17,3.17,0,0,0-1.22-1.07,3.34,3.34,0,0,0-1.56-.39,3.66,3.66,0,0,0-1.31.24,3.58,3.58,0,0,0-1.14.71,3.91,3.91,0,0,0-.88,1.25A3.71,3.71,0,0,0,12,20.05a3.91,3.91,0,0,0,.06.68,3.72,3.72,0,0,0,.2.68,4.13,4.13,0,0,0,.32.63,3.87,3.87,0,0,0,.43.55,3.63,3.63,0,0,0,1.26.91,3.46,3.46,0,0,0,1.48.32,3.34,3.34,0,0,0,1.79-.54,3.55,3.55,0,0,0,1.3-1.42H14.44V19.94h6.9v.24a5.62,5.62,0,0,1-5.63,5.62,5.67,5.67,0,0,1-5.66-5.68,5.58,5.58,0,0,1,1.66-4.07,5.39,5.39,0,0,1,4-1.68,5.57,5.57,0,0,1,3.07.92A5.06,5.06,0,0,1,20.8,17.8Z" class="cls-1"/><path d="M22.62,14.58h2v7.48c0,.12,0,.24,0,.37a1.49,1.49,0,0,0,.16.46,1.75,1.75,0,0,0,.58.68,1.42,1.42,0,0,0,.82.25,1.48,1.48,0,0,0,.74-.19,1.61,1.61,0,0,0,.59-.57,2,2,0,0,0,.25-.79,6.49,6.49,0,0,0,0-.86V14.58h2v6.83A8.23,8.23,0,0,1,29.64,23,3.24,3.24,0,0,1,29,24.37a4,4,0,0,1-1.26,1,3.25,3.25,0,0,1-1.55.4,3.2,3.2,0,0,1-1.47-.37,4.08,4.08,0,0,1-1.24-1A3.58,3.58,0,0,1,22.76,23a4.39,4.39,0,0,1-.1-.69,8.38,8.38,0,0,1,0-.93Z" class="cls-1"/><path d="M34.34,25.53v-4l-3.48-6.91H33l2.3,5,2.31-5h2.15L36.3,21.49v4Z" class="cls-1"/><path d="M40.66,25.53v-11h5.69v2H42.63v2.52h3.56v2H42.63v2.52h3.72v2Z" class="cls-1"/><path d="M48.11,25.53v-11h2.21l4.4,8v-8h2v11H54.51l-4.44-8v8Z" class="cls-1"/><path d="M58.71,25.53v-11h2v9h3.24v2Z" class="cls-1"/><path d="M65,14.58h2V21.7c0,.13,0,.25,0,.36a2.4,2.4,0,0,0,0,.37,1.81,1.81,0,0,0,.16.46,1.83,1.83,0,0,0,.58.68,1.42,1.42,0,0,0,.82.25,1.55,1.55,0,0,0,.75-.19,1.69,1.69,0,0,0,.59-.57,2.23,2.23,0,0,0,.25-.79c0-.21,0-.49,0-.86V14.58h2v6.83A8.34,8.34,0,0,1,72,23a3.25,3.25,0,0,1-.65,1.39,4,4,0,0,1-1.26,1,3.23,3.23,0,0,1-1.55.4,3.13,3.13,0,0,1-1.46-.37,4.12,4.12,0,0,1-1.25-1A3.44,3.44,0,0,1,65.15,23a4.34,4.34,0,0,1-.11-.69q0-.39,0-.93Z" class="cls-1"/><path d="M79.14,14.37A5.22,5.22,0,0,1,83,16.05a5.64,5.64,0,0,1,1.61,4.05,5.56,5.56,0,0,1-1.62,4,5.38,5.38,0,0,1-7.78,0,5.57,5.57,0,0,1-1.62-4,5.6,5.6,0,0,1,1.61-4.05A5.22,5.22,0,0,1,79.14,14.37Zm0,2a3.33,3.33,0,0,0-2.51,1.09,3.69,3.69,0,0,0-1,2.63,3.74,3.74,0,0,0,1,2.64,3.35,3.35,0,0,0,5,0,3.74,3.74,0,0,0,1-2.64,3.66,3.66,0,0,0-1-2.63A3.35,3.35,0,0,0,79.14,16.34Z" class="cls-1"/><path d="M86.2,25.53v-11h2.2l4.41,8v-8h2v11H92.6l-4.44-8v8Z" class="cls-1"/><path d="M107,17.8h-2.34a3.32,3.32,0,0,0-1.22-1.07,3.4,3.4,0,0,0-1.56-.39,3.62,3.62,0,0,0-1.31.24,3.58,3.58,0,0,0-1.14.71,3.94,3.94,0,0,0-.89,1.25,3.71,3.71,0,0,0-.33,1.51,3.14,3.14,0,0,0,.07.68,3.07,3.07,0,0,0,.2.68,3.39,3.39,0,0,0,.32.63,3.87,3.87,0,0,0,.43.55,3.6,3.6,0,0,0,1.25.91,3.51,3.51,0,0,0,1.49.32,3.3,3.3,0,0,0,1.78-.54,3.57,3.57,0,0,0,1.31-1.42h-4.43V19.94h6.9v.24a5.62,5.62,0,0,1-5.63,5.62,5.65,5.65,0,0,1-5.65-5.68,5.54,5.54,0,0,1,1.66-4.07,5.39,5.39,0,0,1,4-1.68,5.57,5.57,0,0,1,3.07.92A5.12,5.12,0,0,1,107,17.8Z" class="cls-1"/><path d="M108.82,25.53v-11H111a12.62,12.62,0,0,1,1.57.08,6.55,6.55,0,0,1,1.54.38,4.25,4.25,0,0,1,1.33.82,5.17,5.17,0,0,1,1.34,1.91,6.26,6.26,0,0,1,.36,1.14,5.86,5.86,0,0,1,.12,1.19,5.69,5.69,0,0,1-.49,2.29,5.09,5.09,0,0,1-1.33,1.88,4.91,4.91,0,0,1-1.35.83,6.09,6.09,0,0,1-1.47.36l-.7.05-.88,0Zm2-2H111a7.59,7.59,0,0,0,2-.2,3.18,3.18,0,0,0,1.07-.54,3.33,3.33,0,0,0,.94-1.2,3.49,3.49,0,0,0,.33-1.52,3.85,3.85,0,0,0-.36-1.64,3.13,3.13,0,0,0-1-1.26,3.52,3.52,0,0,0-1.45-.55,9.45,9.45,0,0,0-1.56-.1h-.14Z" class="cls-1"/><path d="M118.84,14.58h2v7.48c0,.12,0,.24,0,.37a1.49,1.49,0,0,0,.16.46,1.75,1.75,0,0,0,.58.68,1.42,1.42,0,0,0,.82.25,1.48,1.48,0,0,0,.74-.19,1.61,1.61,0,0,0,.59-.57,2,2,0,0,0,.25-.79,6.49,6.49,0,0,0,0-.86V14.58h2v6.83a8.23,8.23,0,0,1-.13,1.57,3.24,3.24,0,0,1-.64,1.39,4,4,0,0,1-1.26,1,3.25,3.25,0,0,1-1.55.4,3.2,3.2,0,0,1-1.47-.37,4.08,4.08,0,0,1-1.24-1A3.58,3.58,0,0,1,119,23a6,6,0,0,1-.1-.69,8.38,8.38,0,0,1,0-.93Z" class="cls-1"/><path d="M130.56,25.53v-4l-3.48-6.91h2.16l2.3,5,2.31-5H136l-3.48,6.91v4Z" class="cls-1"/></svg>