<?xml version="1.0" encoding="utf-8"?>
<!-- Generator: Adobe Illustrator 25.2.1, SVG Export Plug-In . SVG Version: 6.00 Build 0)  -->
<svg version="1.1" id="Layer_1" xmlns="http://www.w3.org/2000/svg" xmlns:xlink="http://www.w3.org/1999/xlink" x="0px" y="0px"
	 viewBox="0 0 64 64" style="enable-background:new 0 0 64 64;" xml:space="preserve">
<style type="text/css">
	.st0{fill-rule:evenodd;clip-rule:evenodd;fill:#231F20;}
</style>
<g id="Blogger">
	<path class="st0" d="M19.2,38.4c-1.8,0-3.2,1.4-3.2,3.2c0,1.8,1.4,3.2,3.2,3.2h25.6c1.8,0,3.2-1.4,3.2-3.2c0-1.8-1.4-3.2-3.2-3.2
		H19.2z M19.2,19.2c-1.8,0-3.2,1.4-3.2,3.2s1.4,3.2,3.2,3.2H32c1.8,0,3.2-1.4,3.2-3.2s-1.4-3.2-3.2-3.2H19.2z M20.8,0h9.6
		c11.5,0,20.8,9.3,20.8,20.8c0,2.7,2.1,4.8,4.8,4.8h3.2c2.7,0,4.8,2.1,4.8,4.8v12.8C64,54.7,54.7,64,43.2,64H20.8
		C9.3,64,0,54.7,0,43.2V20.8C0,9.3,9.3,0,20.8,0z"/>
</g>
</svg>
