<svg xmlns="http://www.w3.org/2000/svg" id="Layer_1" data-name="Layer 1" viewBox="0 0 160 47"><defs><style>.cls-1{fill:#fff}</style></defs><path d="M0,32.19,3.94,13.68H7.79L12.62,27.2l2.89-13.52h3.43L15,32.19H11.2L6.29,18.71,3.44,32.19Z" class="cls-1"/><path d="M33.05,26.73H22.27a2.81,2.81,0,0,0,1,1.92,3.16,3.16,0,0,0,2.13.74,5.27,5.27,0,0,0,1.82-.33,4.63,4.63,0,0,0,1.54-.88h3.68a8.46,8.46,0,0,1-3.23,3.16,9.72,9.72,0,0,1-2.18,1,7.59,7.59,0,0,1-2.21.33A5.8,5.8,0,0,1,20.54,31a5.55,5.55,0,0,1-1.66-4.14l0-.73c0-.27,0-.43,0-.46a1.57,1.57,0,0,0,.07-.32,9.33,9.33,0,0,1,3.27-5.29A8.7,8.7,0,0,1,28,17.87a5.53,5.53,0,0,1,4.14,1.68,5.66,5.66,0,0,1,1.58,4.1l0,.73c0,.27-.05.42-.05.46s-.07.23-.08.29a4.92,4.92,0,0,1-.23.81Zm-10.19-3h7.63a2.87,2.87,0,0,0-1-1.93,3.3,3.3,0,0,0-1-.54,3.78,3.78,0,0,0-1.2-.18,5.35,5.35,0,0,0-4.43,2.65Z" class="cls-1"/><path d="M38.13,32.19,36.08,18.31h3.53l.78,8.47,4.08-8.47H47.1l.5,8.47L52,18.31h3.52l-8,13.88h-2l-.72-9-4.54,9Z" class="cls-1"/><path d="M65.19,22.12H61.92a1,1,0,0,0-.29-.74,1.13,1.13,0,0,0-.76-.26,1.69,1.69,0,0,0-1,.31,1.35,1.35,0,0,0-.55.86l0,.14v.08a.77.77,0,0,0,.35.64,7.83,7.83,0,0,0,1.3.51c.36.12.69.23,1,.35a6.31,6.31,0,0,1,.7.29,3.73,3.73,0,0,1,1.31,1,2.61,2.61,0,0,1,.51,1.64v.45a2.24,2.24,0,0,1-.08.48,5.7,5.7,0,0,1-2.11,3.32,7.22,7.22,0,0,1-1.91,1.06,5.71,5.71,0,0,1-2,.4,4.13,4.13,0,0,1-3-1.05,3.63,3.63,0,0,1-1.11-2.79v-.47l.08-.5h3.4A1.69,1.69,0,0,0,58.08,29a1.3,1.3,0,0,0,1.07.44A2.08,2.08,0,0,0,60.31,29a1.44,1.44,0,0,0,.66-1l0-.28a1.2,1.2,0,0,0-.73-1A10.42,10.42,0,0,0,59,26.26a12,12,0,0,1-1.21-.47,3.33,3.33,0,0,1-1-.74A2.82,2.82,0,0,1,55.92,23a2.9,2.9,0,0,1,.1-.84A5.1,5.1,0,0,1,58.11,19a5.86,5.86,0,0,1,3.52-1.17,3.68,3.68,0,0,1,2.6,1,3.22,3.22,0,0,1,1.06,2.46,3.59,3.59,0,0,1,0,.4A1.94,1.94,0,0,1,65.19,22.12Z" class="cls-1"/><path d="M65,32.19,65.65,29,73.3,23.1c.62-.49,1.06-.85,1.32-1.09a8.41,8.41,0,0,0,1.1-1.26,4,4,0,0,0,.63-1.47,3.13,3.13,0,0,0,.08-.66,2,2,0,0,0-.59-1.48,2.15,2.15,0,0,0-.67-.41,2.48,2.48,0,0,0-.89-.15,3.28,3.28,0,0,0-2.45,1.05,4.25,4.25,0,0,0-1.14,2.44H67.36l.15-.69a7.47,7.47,0,0,1,2.65-4.27,7,7,0,0,1,4.62-1.78,5.07,5.07,0,0,1,3.64,1.32,4.55,4.55,0,0,1,1.38,3.44,7.55,7.55,0,0,1-.14,1.35,6.72,6.72,0,0,1-.81,2.08,10.26,10.26,0,0,1-1.49,1.9l-2.84,2.46L70.31,29h7.32L77,32.19Z" class="cls-1"/><path d="M79.13,26.7l11.28-13h2.8l-2.68,12.6h2l-.68,3.16h-2l-.58,2.75H85.94l.58-2.75h-8Zm8.07-.42,1.48-7-5.92,7Z" class="cls-1"/><path d="M93.34,32.19l3.93-18.51h3.34L99.4,19.36a4.9,4.9,0,0,1,1.84-1.13,6.2,6.2,0,0,1,2.05-.36,4.58,4.58,0,0,1,2.11.5A4.12,4.12,0,0,1,107,19.71a3.89,3.89,0,0,1,.49,1.1,4.79,4.79,0,0,1,.16,1.18c0,.24,0,.49,0,.74s-.07.54-.14.88l-.2,1.07-1.61,7.51h-3.32l1.45-6.79.2-1.13a7.07,7.07,0,0,0,.06-.91,2.49,2.49,0,0,0-.44-1.59,2.12,2.12,0,0,0-1.75-.65,3.24,3.24,0,0,0-2.53,1.2,4.61,4.61,0,0,0-.81,1.53c-.1.31-.23.85-.39,1.6l-1.43,6.74Z" class="cls-1"/><path d="M108.81,32.19l.71-3.33h3.33l-.7,3.33Z" class="cls-1"/><path d="M115.72,32.19l3.94-18.51h3.85l4.84,13.52,2.88-13.52h3.44l-3.94,18.51h-3.8L122,18.71l-2.85,13.48Z" class="cls-1"/><path d="M134.27,32.19l3.93-18.51h10l-.7,3.33h-6.52l-.9,4.26h6.23l-.72,3.32H139.3l-.9,4.27h6.52l-.71,3.33Z" class="cls-1"/><path d="M149.18,32.19,152.4,17H149l.7-3.33H160L159.29,17h-3.45L152.6,32.19Z" class="cls-1"/></svg>